# xmcd
#
# Track frame offsets:
#	150
#	14297
#	29152
#	46682
#	60742
#	78527
#	100162
#	119300
#	134815
#	153927
#
# Disc length: 2254 seconds
#
# Revision: 3
# Processed by: cddbd v1.5.1PL2 Copyright (c) Steve Scherf et al.
# Submitted via: dBpowerAMP V4.0
#
DISCID=8208cc0a
DTITLE=Steve Wariner - Drive
DYEAR=1993
DGENRE=Country
TTITLE0=Drive
TTITLE1=If I Didn't Love You
TTITLE2=One Believer
TTITLE3=It Won't Be Over You
TTITLE4=(You Could Always) Come Back
TTITLE5=Drivin' And Cryin'
TTITLE6=The Same Mistake Again
TTITLE7=Missing You
TTITLE8=Married To A Memory
TTITLE9=Sails
EXTD=
EXTT0=
EXTT1=
EXTT2=
EXTT3=
EXTT4=
EXTT5=
EXTT6=
EXTT7=
EXTT8=
EXTT9=
PLAYORDER=
